<svg width="410" height="149" viewBox="0 0 410 149" fill="none" xmlns="http://www.w3.org/2000/svg">
<path d="M71.2859 56.968V109H53.9099V103.816C50.5179 107.848 45.3979 109.864 38.5499 109.864C33.8139 109.864 29.4939 108.776 25.5899 106.6C21.7499 104.36 18.6779 101.192 16.3739 97.096C14.1339 93 13.0139 88.264 13.0139 82.888C13.0139 77.512 14.1339 72.808 16.3739 68.776C18.6779 64.68 21.7499 61.544 25.5899 59.368C29.4939 57.192 33.8139 56.104 38.5499 56.104C44.6939 56.104 49.5259 57.896 53.0459 61.48V56.968H71.2859ZM42.3899 95.368C45.5899 95.368 48.2139 94.28 50.2619 92.104C52.3099 89.864 53.3339 86.792 53.3339 82.888C53.3339 79.048 52.3099 76.04 50.2619 73.864C48.2139 71.688 45.5899 70.6 42.3899 70.6C39.1899 70.6 36.5659 71.688 34.5179 73.864C32.4699 76.04 31.4459 79.048 31.4459 82.888C31.4459 86.792 32.4699 89.864 34.5179 92.104C36.5659 94.28 39.1899 95.368 42.3899 95.368ZM100.404 63.208C102.26 60.84 104.66 59.08 107.604 57.928C110.612 56.712 114.036 56.104 117.876 56.104V72.52C116.212 72.328 114.836 72.232 113.748 72.232C109.844 72.232 106.772 73.288 104.532 75.4C102.356 77.512 101.268 80.744 101.268 85.096V109H83.0279V56.968H100.404V63.208ZM149.019 90.76L143.643 96.232V109H125.403V37.768H143.643V75.112L162.267 56.968H183.867L162.267 79.24L185.691 109H163.611L149.019 90.76ZM243.88 56.968V109H226.504V103.816C223.112 107.848 217.992 109.864 211.144 109.864C206.408 109.864 202.088 108.776 198.184 106.6C194.344 104.36 191.272 101.192 188.968 97.096C186.728 93 185.608 88.264 185.608 82.888C185.608 77.512 186.728 72.808 188.968 68.776C191.272 64.68 194.344 61.544 198.184 59.368C202.088 57.192 206.408 56.104 211.144 56.104C217.288 56.104 222.12 57.896 225.64 61.48V56.968H243.88ZM214.984 95.368C218.184 95.368 220.808 94.28 222.856 92.104C224.904 89.864 225.928 86.792 225.928 82.888C225.928 79.048 224.904 76.04 222.856 73.864C220.808 71.688 218.184 70.6 214.984 70.6C211.784 70.6 209.16 71.688 207.112 73.864C205.064 76.04 204.04 79.048 204.04 82.888C204.04 86.792 205.064 89.864 207.112 92.104C209.16 94.28 211.784 95.368 214.984 95.368ZM255.622 56.968H273.862V109H255.622V56.968ZM264.742 51.208C261.414 51.208 258.726 50.28 256.678 48.424C254.63 46.568 253.606 44.264 253.606 41.512C253.606 38.76 254.63 36.456 256.678 34.6C258.726 32.744 261.414 31.816 264.742 31.816C268.07 31.816 270.758 32.712 272.806 34.504C274.854 36.232 275.878 38.472 275.878 41.224C275.878 44.104 274.854 46.504 272.806 48.424C270.758 50.28 268.07 51.208 264.742 51.208ZM340.531 56.968L319.027 109H300.211L278.803 56.968H297.523L310.003 88.744L323.155 56.968H340.531ZM371.68 95.944C374.176 95.944 376.32 95.592 378.112 94.888C379.968 94.184 381.824 93.032 383.68 91.432L393.184 101.416C388.256 107.048 380.896 109.864 371.104 109.864C365.024 109.864 359.68 108.712 355.072 106.408C350.464 104.104 346.88 100.904 344.32 96.808C341.824 92.712 340.576 88.072 340.576 82.888C340.576 77.768 341.824 73.192 344.32 69.16C346.816 65.064 350.24 61.864 354.592 59.56C359.008 57.256 363.936 56.104 369.376 56.104C374.432 56.104 379.04 57.16 383.2 59.272C387.424 61.32 390.784 64.36 393.28 68.392C395.776 72.36 397.024 77.096 397.024 82.6L359.872 89.704C361.856 93.864 365.792 95.944 371.68 95.944ZM369.472 69.064C366.336 69.064 363.776 70.056 361.792 72.04C359.808 73.96 358.688 76.744 358.432 80.392L379.552 76.264C378.912 74.088 377.696 72.36 375.904 71.08C374.112 69.736 371.968 69.064 369.472 69.064Z" fill="#8C3AFF"/>
</svg>
